<?xml version='1.0' encoding='ASCII' standalone='yes'?>
<svg xmlns="http://www.w3.org/2000/svg" xmlns:xlink="http://www.w3.org/1999/xlink" version="1.1" width="1920.0px" viewBox="0 0 1920.0 1080.0" height="1080.0px">
  <g>
    <g>
      <defs>
        <linearGradient gradientTransform="rotate(45,0.5,0.5)" id="id24">
          <stop offset="0.0" stop-color="#9935EF"/>
          <stop offset="0.5" stop-color="#4617C9"/>
          <stop offset="1.0" stop-color="#3E52CD"/>
        </linearGradient>
      </defs>
      <rect fill="url(#id24) currentColor" height="1080" width="1920" x="0" y="0"/>
    </g>
    <g transform="translate(786.75, 510.0) scale(1 1)"><g>
    <g transform="translate(0, 0) scale(1.5 1.5)"><title>hbo-max/logo/hbo-max_secundario</title>
    <g id="hbo-max/logo/hbo-max_secundario" stroke="none" stroke-width="1" fill="none" fill-rule="evenodd">
        <g id="Combined-Shape-2" fill="#FFFFFF">
            <path d="M78.0056325,0 C89.0099598,0 98,8.67191511 98,19.8845145 C98,30.9291337 89.0099598,40 78.0056325,40 C66.8740726,40 61.4037229,31.9790026 59.8558932,28.7874015 C59.8558932,33.8720473 55.1098944,39.6484682 48.3279357,39.82774 L48.0034572,39.8320209 L30.9138886,39.8320209 L30.9138886,0.650917494 L49.2756435,0.650917494 C54.958032,0.650917494 59.8558932,6.44619387 59.8558932,11.296588 C61.2128856,8.02099761 66.852871,0 78.0056325,0 Z M173.971008,0 C178.063428,0 181.862034,1.1752361 184.884129,3.48373557 C185.227182,1.92993785 186.579215,0.744798425 188.212597,0.655932372 L188.409907,0.650577125 L191.809764,0.650577125 C192.111974,0.650577125 192.346186,0.871563484 192.405306,1.16054565 L192.418381,1.25918153 L192.418381,39.2444911 C192.418381,39.5466946 192.19739,39.7979014 191.908402,39.8451207 L191.809764,39.8530955 L188.409907,39.8530955 C186.521098,39.8530955 184.989063,38.4050367 184.821169,36.5792235 C181.799074,38.8457503 178.042442,40 173.971008,40 C164.002291,40 155.94337,33.0745016 155.94337,20 C155.94337,6.92549843 164.023278,0 173.971008,0 Z M138.860137,0.0419727177 C147.086952,0.0419727177 153.802719,5.05771249 154.012587,14.5435467 C154.012587,14.5592865 154.024392,14.5750262 154.021441,14.5730588 L154.012587,14.5645331 L154.012587,39.2025184 C154.012587,39.5047219 153.791596,39.7559286 153.502609,39.803148 L153.403971,39.8111228 L150.004114,39.8111228 C148.094994,39.8111228 146.520004,38.3174007 146.420378,36.4141096 L146.415376,36.2224554 L146.415376,14.5855194 L146.402442,14.301747 C146.132801,9.80551563 142.869039,7.42917104 138.860137,7.42917104 C134.851236,7.42917104 131.587473,9.80551563 131.317833,14.301747 L131.304899,14.5855194 L131.304899,39.2235047 C131.304899,39.5257083 131.083909,39.776915 130.794921,39.8241343 L130.696283,39.8321091 L127.296426,39.8321091 C125.387307,39.8321091 123.812316,38.338387 123.71269,36.4350959 L123.707688,36.2434418 L123.707688,14.6065058 L123.694754,14.3227334 C123.425114,9.82650199 120.161352,7.4501574 116.15245,7.4501574 C112.143548,7.4501574 108.879786,9.82650199 108.610145,14.3227334 L108.597212,14.6065058 L108.597212,39.2444911 C108.597212,39.5466946 108.376221,39.7979014 108.087233,39.8451207 L107.988595,39.8530955 L104.588738,39.8530955 C102.679619,39.8530955 101.104628,38.3593734 101.005002,36.4560823 L101,36.2644281 L101,14.5645331 C101.209868,5.07869885 107.925635,0.0419727177 116.15245,0.0419727177 C120.664606,0.0419727177 124.73604,1.55299056 127.506294,4.4910808 C130.276548,1.55299056 134.347981,0.0419727177 138.860137,0.0419727177 Z M11.0043273,0.671915801 L11.0043273,15.2860885 L17.9589021,15.2860885 L17.9589021,0.671915801 L28.7087875,0.671915801 L28.7087875,39.8320209 L17.9801036,39.8320209 L17.9801036,24.6509184 L11.0255289,24.6509184 L11.0255289,39.8320209 L0,39.8320209 L0,0.671915801 L11.0043273,0.671915801 Z M200.561248,0.650577125 C202.076493,0.650577125 203.515976,1.3703043 204.411865,2.57584732 L204.548735,2.77019937 L210.928714,12.2140609 C211.737093,13.406397 213.440678,13.4505575 214.315369,12.3465426 L214.412518,12.2140609 L220.792497,2.77019937 C221.649807,1.51416579 223.037452,0.731636936 224.541582,0.656524134 L224.779984,0.650577125 L230.551346,0.650577125 C230.880677,0.650577125 231.084832,1.00821448 230.949226,1.29432437 L230.908121,1.36411333 L219.533291,18.2371459 C218.755731,19.3934942 218.716853,20.890766 219.416657,22.0812067 L219.533291,22.2665268 L230.929108,39.1185729 C231.10346,39.3897813 230.938049,39.7503989 230.630956,39.8042738 L230.551346,39.8111228 L224.779984,39.8111228 C223.264739,39.8111228 221.825256,39.0913956 220.929367,37.8858526 L220.792497,37.6915005 L214.412518,28.247639 C213.604139,27.0553029 211.900554,27.0111423 211.025863,28.1151572 L210.928714,28.247639 L204.548735,37.6915005 C203.691425,38.9475341 202.30378,39.730063 200.79965,39.8051758 L200.561248,39.8111228 L194.789886,39.8111228 C194.460555,39.8111228 194.238517,39.4713673 194.371373,39.1880084 L194.412124,39.1185729 L205.786955,22.2455404 C206.564515,21.089192 206.603393,19.5919203 205.903589,18.4014795 L205.786955,18.2161595 L194.412124,1.34312697 C194.237772,1.07191864 194.403183,0.711300968 194.710276,0.65742611 L194.789886,0.650577125 L200.561248,0.650577125 Z M173.971008,7.47114376 C168.031751,7.47114376 163.204793,11.81532 163.204793,20.0209864 C163.204793,28.2266527 168.031751,32.570829 173.971008,32.570829 C179.910264,32.570829 184.737222,28.2266527 184.737222,20.0209864 C184.737222,11.81532 179.910264,7.47114376 173.971008,7.47114376 Z M46.6464647,24.0839893 L41.176115,24.0839893 L41.176115,30.7191601 L46.6464647,30.7191601 C48.2366976,30.7191601 49.5088605,29.1863516 49.5088605,27.3595799 C49.5088605,25.6167976 48.2366976,24.0839893 46.6464647,24.0839893 Z M78.0904387,9.93168412 C72.514058,9.91075979 67.9766231,14.3622046 67.9766231,19.8845145 C67.9766231,25.4278214 72.4716549,29.879265 78.0268341,29.879265 C83.5395868,29.879265 87.9922155,25.4908135 88.0770217,20.0314957 C88.1406263,14.4881875 83.688021,9.9737524 78.0904387,9.93168412 Z M78.0056325,12.0734907 C82.2886254,12.0734907 85.8931221,15.5170606 85.8931221,19.8845145 C85.8931221,24.2519684 82.2886254,27.7375326 78.0056325,27.7375326 C73.595407,27.7375326 70.0757165,24.2519684 70.0757165,19.8845145 C70.0757165,15.5170606 73.595407,12.0734907 78.0056325,12.0734907 Z M58.0112417,17.4908137 C57.2267377,18.3517051 55.1488459,19.8005236 53.876683,19.8845145 C55.1488459,20.1154843 57.1419315,21.6272955 58.0112417,22.9081368 C57.7143967,21.8582676 57.7143967,18.5406829 58.0112417,17.4908137 Z M46.6464647,9.38582521 L41.176115,9.38582521 L41.176115,15.9370083 L46.6464647,15.9370083 C48.2366976,15.9370083 49.5088605,14.4041989 49.5088605,12.6614156 C49.5088605,10.9186346 48.2366976,9.38582521 46.6464647,9.38582521 Z" id="Combined-Shape"/>
        </g>
    </g>
</g>
  </g>
</g>
    <g transform="translate(180.0, -240.0) scale(1 1)"><g>
    <g transform="translate(0, 0) scale(13 13)" opacity="0.1"><title>hbo-max/icon/hbo-max_blanco</title>
    <g id="hbo-max/icon/hbo-max_blanco" stroke="none" stroke-width="1" fill="none" fill-rule="evenodd">
        <g id="Group-19" transform="translate(9.000000, 27.000000)" fill="#FFFFFF" fill-rule="nonzero">
            <path d="M74.5270938,0 C83.6017769,0 91.0153846,7.07016138 91.0153846,16.2117277 C91.0153846,25.2163408 83.6017769,32.6117647 74.5270938,32.6117647 C65.3474887,32.6117647 60.8363825,26.0722927 59.5599697,23.4701991 C59.5599697,27.6814822 55.5209642,32.4748124 49.7858965,32.4748124 L49.7858965,32.4748124 L35.6930388,32.4748124 L35.6930388,0.530689204 L50.8350008,0.530689204 C55.5209642,0.530689204 59.5599697,5.25554395 59.5599697,9.21004175 C60.6790091,6.53947217 65.3300049,0 74.5270938,0 Z M19.2746831,0.547809 L19.2746831,12.462658 L25.0097508,12.462658 L25.0097508,0.547809 L33.8746092,0.547809 L33.8746092,32.4748124 L25.0272346,32.4748124 L25.0272346,20.0977488 L19.2921669,20.0977488 L19.2921669,32.4748124 L10.2,32.4748124 L10.2,0.547809 L19.2746831,0.547809 Z M48.666857,19.6355348 L44.1557508,19.6355348 L44.1557508,25.0451505 L48.666857,25.0451505 C49.9782374,25.0451505 51.0273225,23.7954608 51.0273225,22.3061046 C51.0273225,20.8852244 49.9782374,19.6355348 48.666857,19.6355348 L48.666857,19.6355348 Z M74.597029,8.09724364 C69.9984845,8.08018416 66.2567035,11.7094209 66.2567035,16.2117277 C66.2567035,20.7311532 69.963517,24.360389 74.5445776,24.360389 C79.0906514,24.360389 82.7624973,20.7825103 82.8324325,16.3315606 C82.8848838,11.812134 79.2130572,8.13154167 74.597029,8.09724364 Z M74.5270938,9.84344597 C78.0590501,9.84344597 81.0314867,12.6509683 81.0314867,16.2117277 C81.0314867,19.7724872 78.0590501,22.6142472 74.5270938,22.6142472 C70.8902155,22.6142472 67.9877141,19.7724872 67.9877141,16.2117277 C67.9877141,12.6509683 70.8902155,9.84344597 74.5270938,9.84344597 Z M58.0387838,14.2601576 C57.3918451,14.9620372 55.6783183,16.1432504 54.6292332,16.2117277 C55.6783183,16.4000361 57.3219099,17.6326068 58.0387838,18.6768692 C57.7939915,17.820917 57.7939915,15.1161097 58.0387838,14.2601576 Z M48.666857,7.65220809 L44.1557508,7.65220809 L44.1557508,12.9933491 L48.666857,12.9933491 C49.9782374,12.9933491 51.0273225,11.7436586 51.0273225,10.3227777 C51.0273225,8.9018986 49.9782374,7.65220809 48.666857,7.65220809 L48.666857,7.65220809 Z" id="Combined-Shape"/>
            <path d="M41.5944914,46.2338127 C41.429826,38.8683415 36.1605317,34.9737671 29.7056463,34.9737671 C26.1653392,34.9737671 22.9708296,36.147028 20.7972457,38.4283686 C18.6236618,36.147028 15.4291522,34.9737671 11.8888451,34.9737671 C5.43395969,34.9737671 0.164665445,38.8846368 0,46.250108 C0,46.2664033 0,46.2826986 0,46.2989939 L0,63.0994383 C0,64.6474909 1.26792393,65.885933 2.81577911,65.885933 L5.48335932,65.885933 C5.74682403,65.885933 5.96088911,65.6740942 5.96088911,65.4133695 L5.96088911,46.2826986 L5.96088911,46.2826986 C6.07615493,42.6488488 8.67786896,40.7260046 11.8888451,40.7260046 C15.0998213,40.7260046 17.7015354,42.6488488 17.8168012,46.2826986 L17.8168012,46.2826986 L17.8168012,63.083143 C17.8168012,64.6311956 19.0847251,65.8696377 20.6325803,65.8696377 L23.3001605,65.8696377 C23.5636252,65.8696377 23.7776903,65.6577989 23.7776903,65.3970743 L23.7776903,46.2664033 L23.7776903,46.2664033 C23.8929561,42.6325535 26.4946701,40.7097093 29.7056463,40.7097093 C32.9166225,40.7097093 35.5183365,42.6325535 35.6336023,46.2664033 L35.6336023,46.2664033 L35.6336023,63.0668477 C35.6336023,64.6149003 36.9015263,65.8533424 38.4493814,65.8533424 L41.1169616,65.8533424 C41.3804264,65.8533424 41.5944914,65.6415036 41.5944914,65.380779 L41.5944914,46.250108 C41.610958,46.2664033 41.5944914,46.250108 41.5944914,46.2338127 Z M101.647979,35.4463305 L97.1196795,35.4463305 C95.8682222,35.4463305 94.6990975,36.0655515 93.9910361,37.0921548 L88.9852065,44.4250355 C88.3265448,45.3864576 86.9104219,45.3864576 86.2517602,44.4250355 L81.2459306,37.0921548 C80.5543358,36.0655515 79.3687445,35.4463305 78.1172872,35.4463305 L73.5889874,35.4463305 C73.3090562,35.4463305 73.1443907,35.755941 73.2925896,35.9840751 L82.2174568,49.0854886 C82.859652,50.0306154 82.859652,51.2690575 82.2174568,52.2141843 L73.2925896,65.3155978 C73.1279242,65.5437319 73.3090562,65.8533424 73.5889874,65.8533424 L78.1172872,65.8533424 C79.3687445,65.8533424 80.5378692,65.2341214 81.2459306,64.2075181 L86.2517602,56.8746374 C86.9104219,55.9132152 88.3265448,55.9132152 88.9852065,56.8746374 L93.9910361,64.2075181 C94.6826309,65.2341214 95.8682222,65.8533424 97.1196795,65.8533424 L101.647979,65.8533424 C101.927911,65.8533424 102.092576,65.5437319 101.944377,65.3155978 L93.0030434,52.2304796 C92.3608482,51.2853528 92.3608482,50.0469107 93.0030434,49.1017838 L101.927911,36.0003703 C102.092576,35.7722363 101.927911,35.4463305 101.647979,35.4463305 Z M71.2507381,35.4463305 L68.5831579,35.4463305 C67.2329012,35.4463305 66.0967097,36.3914573 65.8167784,37.6461947 C63.445596,35.8537127 60.4651514,34.9411765 57.2541753,34.9411765 C49.4490332,34.9411765 43.1094135,40.3186223 43.1094135,50.4705882 C43.1094135,60.6225542 49.4325666,66 57.2541753,66 C60.4486849,66 63.3961964,65.103759 65.7673788,63.3438677 C65.8991111,64.7615579 67.1011689,65.885933 68.5831579,65.885933 L71.2507381,65.885933 C71.5142028,65.885933 71.7282679,65.6740942 71.7282679,65.4133695 L71.7282679,35.9188939 C71.7118014,35.6581692 71.5142028,35.4463305 71.2507381,35.4463305 L71.2507381,35.4463305 Z M57.2541753,60.2314672 C52.5941432,60.2314672 48.8068379,56.8583421 48.8068379,50.4868835 C48.8068379,44.115425 52.5941432,40.7422999 57.2541753,40.7422999 C61.9142074,40.7422999 65.7015126,44.115425 65.7015126,50.4868835 C65.7015126,56.8583421 61.9142074,60.2314672 57.2541753,60.2314672 Z" id="XMLID_1_"/>
        </g>
    </g>
</g>
  </g>
</g>
  </g>
</svg>
